<svg width="352" height="329" viewBox="0 0 352 329" fill="none" xmlns="http://www.w3.org/2000/svg">
<path d="M199.113 95.0732L149.342 10.0547" stroke="#FFC506" stroke-width="20.1077" stroke-linecap="round"/>
<path d="M242.1 95.0732L291.871 10.0547" stroke="#FFC506" stroke-width="20.1077" stroke-linecap="round"/>
<path d="M336.274 93.1016C344.959 93.1017 352 100.142 352 108.827V312.329C352 321.014 344.959 328.055 336.274 328.055H55.4307C46.7459 328.055 39.7051 321.014 39.7051 312.329V308.257L12.8018 295.438C4.98132 291.711 0 283.82 0 275.157V146.812C0.000111649 137.3 5.99151 128.819 14.957 125.64L39.7051 116.863V108.827C39.7052 100.142 46.7459 93.1017 55.4307 93.1016H336.274ZM110.638 105.367V117.428C110.349 118.619 110.194 119.864 110.194 121.145V300.888C110.194 302.168 110.349 303.412 110.638 304.604V316.407H123.378C124.205 316.542 125.054 316.613 125.92 316.613H325.566C326.432 316.613 327.282 316.542 328.109 316.407H341.539V105.367H110.638Z" fill="#FFC506"/>
<rect x="215.455" y="284.016" width="16.7195" height="90.1192" rx="8.35975" transform="rotate(90 215.455 284.016)" fill="#FFC506"/>
<rect x="252.039" y="284.016" width="16.7195" height="31.2294" rx="8.35975" transform="rotate(90 252.039 284.016)" fill="#FFC506"/>
<rect x="289.516" y="284.016" width="16.7195" height="31.2294" rx="8.35975" transform="rotate(90 289.516 284.016)" fill="#FFC506"/>
<rect x="326.99" y="284.016" width="16.7195" height="31.2294" rx="8.35975" transform="rotate(90 326.99 284.016)" fill="#FFC506"/>
<rect x="182.441" y="144.98" width="16.9531" height="30.7991" fill="#FFC506"/>
<rect x="182.441" y="221.586" width="16.9531" height="17.5995" fill="#FFC506"/>
<rect x="199.395" y="221.543" width="52.6439" height="17.5995" fill="#FFC506"/>
<rect x="252.039" y="144.98" width="16.9531" height="30.7991" fill="#FFC506"/>
<rect x="252.039" y="221.586" width="16.9531" height="17.5995" fill="#FFC506"/>
</svg>
