<svg width="13" height="13" viewBox="0 0 13 13" fill="none" xmlns="http://www.w3.org/2000/svg">
<path d="M6.22222 0C2.79144 0 0 2.79144 0 6.22222C0 9.653 2.79144 12.4444 6.22222 12.4444C9.653 12.4444 12.4444 9.653 12.4444 6.22222C12.4444 2.79144 9.653 0 6.22222 0ZM6.80556 9.19256C6.80556 9.51456 6.54422 9.77589 6.22222 9.77589C5.90022 9.77589 5.63889 9.51456 5.63889 9.19256V5.63889C5.63889 5.31689 5.90022 5.05556 6.22222 5.05556C6.54422 5.05556 6.80556 5.31689 6.80556 5.63889V9.19256ZM6.22222 4.47222C5.79289 4.47222 5.44444 4.123 5.44444 3.69444C5.44444 3.26589 5.79289 2.91667 6.22222 2.91667C6.65156 2.91667 7 3.26589 7 3.69444C7 4.123 6.65156 4.47222 6.22222 4.47222Z" fill="#FFE600"/>
</svg>
