<svg width="346" height="416" viewBox="0 0 346 416" fill="none" xmlns="http://www.w3.org/2000/svg">
<rect width="346" height="346" fill="#0E0E0E"/>
<rect width="346" height="416" fill="url(#paint0_radial_129_11216)" style="mix-blend-mode:color-dodge"/>
<path d="M106.582 169.468L94.1875 148" stroke="#FFC506" stroke-width="3.97768" stroke-linecap="round"/>
<path d="M117.285 169.468L129.68 148" stroke="#FFC506" stroke-width="3.97768" stroke-linecap="round"/>
<path d="M141.547 168.965C143.264 168.965 144.657 170.358 144.657 172.075V225.182C144.657 226.899 143.264 228.292 141.547 228.292H69.998C68.2802 228.292 66.8879 226.899 66.8877 225.182V223.293L59.5107 219.729C57.9755 218.987 57 217.432 57 215.727V181.645C57.0001 179.77 58.1764 178.096 59.9404 177.462L66.8877 174.964V172.075C66.8881 170.358 68.2803 168.965 69.998 168.965H141.547ZM84.5508 172.065V174.367C84.4796 174.628 84.4404 174.903 84.4404 175.187V222.293C84.4404 222.576 84.4798 222.85 84.5508 223.111V225.354H87.002C87.1804 225.386 87.3642 225.403 87.5518 225.403H138.88C139.068 225.403 139.251 225.386 139.43 225.354H142.052V172.065H84.5508Z" fill="#FFC506"/>
<path d="M100.588 206V189.912H106.357L109.552 203.931H109.965V189.912H112.953V206H107.184L103.99 191.98H103.576V206H100.588ZM122.237 206.322C120.214 206.322 118.605 205.77 117.41 204.667C116.215 203.548 115.617 201.955 115.617 199.886V196.025C115.617 193.957 116.215 192.371 117.41 191.268C118.605 190.149 120.214 189.59 122.237 189.59C124.259 189.59 125.868 190.149 127.063 191.268C128.258 192.371 128.856 193.957 128.856 196.025V199.886C128.856 201.955 128.258 203.548 127.063 204.667C125.868 205.77 124.259 206.322 122.237 206.322ZM122.237 203.61C123.37 203.61 124.252 203.28 124.88 202.621C125.508 201.963 125.822 201.082 125.822 199.978V195.933C125.822 194.83 125.508 193.949 124.88 193.29C124.252 192.631 123.37 192.302 122.237 192.302C121.118 192.302 120.237 192.631 119.594 193.29C118.965 193.949 118.651 194.83 118.651 195.933V199.978C118.651 201.082 118.965 201.963 119.594 202.621C120.237 203.28 121.118 203.61 122.237 203.61Z" fill="#FF5A00"/>
<path d="M162.592 196.09V175.456H167.309L172.791 194.528H173.174L178.657 175.456H183.373V196.09H180.986V177.078H180.573L175.12 196.09H170.846L165.393 177.078H164.98V196.09H162.592ZM192.606 196.503C191.604 196.503 190.69 196.326 189.865 195.972C189.04 195.618 188.391 195.107 187.919 194.439C187.448 193.771 187.212 192.956 187.212 191.993C187.212 191.01 187.448 190.204 187.919 189.576C188.391 188.927 189.04 188.446 189.865 188.131C190.69 187.797 191.614 187.63 192.636 187.63H197.499V186.569C197.499 185.547 197.195 184.741 196.586 184.152C195.996 183.562 195.112 183.268 193.933 183.268C192.773 183.268 191.869 183.553 191.221 184.122C190.572 184.673 190.13 185.419 189.894 186.363L187.713 185.655C187.949 184.85 188.322 184.122 188.833 183.474C189.344 182.806 190.022 182.275 190.867 181.882C191.732 181.47 192.763 181.263 193.962 181.263C195.809 181.263 197.244 181.745 198.266 182.708C199.288 183.651 199.798 184.987 199.798 186.716V193.231C199.798 193.82 200.074 194.115 200.624 194.115H201.95V196.09H199.916C199.268 196.09 198.747 195.913 198.354 195.559C197.961 195.186 197.765 194.695 197.765 194.085V193.938H197.411C197.195 194.311 196.9 194.704 196.527 195.117C196.173 195.51 195.682 195.834 195.053 196.09C194.424 196.365 193.608 196.503 192.606 196.503ZM192.872 194.498C194.247 194.498 195.357 194.095 196.202 193.29C197.067 192.464 197.499 191.315 197.499 189.841V189.517H192.724C191.801 189.517 191.034 189.723 190.425 190.136C189.835 190.529 189.541 191.128 189.541 191.934C189.541 192.739 189.845 193.368 190.454 193.82C191.083 194.272 191.889 194.498 192.872 194.498ZM205.139 196.09V181.676H207.409V183.445H207.822C208.077 182.816 208.47 182.354 209.001 182.059C209.531 181.764 210.229 181.617 211.094 181.617H212.803V183.739H210.946C209.905 183.739 209.06 184.034 208.411 184.624C207.782 185.193 207.468 186.088 207.468 187.306V196.09H205.139ZM216.251 196.09V175.456H218.579V187.601H218.992L225.595 181.676H228.837L220.849 188.691L229.073 196.09H225.86L218.992 189.811H218.579V196.09H216.251ZM237.937 196.503C236.483 196.503 235.205 196.198 234.105 195.589C233.004 194.96 232.15 194.085 231.54 192.965C230.931 191.845 230.627 190.548 230.627 189.074V188.721C230.627 187.227 230.931 185.921 231.54 184.8C232.15 183.68 232.995 182.816 234.075 182.207C235.156 181.578 236.394 181.263 237.789 181.263C239.145 181.263 240.344 181.558 241.386 182.148C242.427 182.717 243.243 183.543 243.832 184.624C244.422 185.704 244.716 186.972 244.716 188.426V189.487H232.955C233.014 191.04 233.515 192.258 234.459 193.142C235.402 194.007 236.581 194.439 237.996 194.439C239.234 194.439 240.187 194.154 240.855 193.584C241.523 193.014 242.034 192.337 242.388 191.55L244.392 192.523C244.097 193.132 243.685 193.742 243.154 194.351C242.643 194.96 241.965 195.471 241.12 195.884C240.295 196.296 239.234 196.503 237.937 196.503ZM232.985 187.571H242.358C242.28 186.235 241.818 185.193 240.973 184.447C240.148 183.7 239.086 183.327 237.789 183.327C236.473 183.327 235.392 183.7 234.547 184.447C233.702 185.193 233.181 186.235 232.985 187.571ZM253.479 196.09C252.654 196.09 252.015 195.864 251.563 195.412C251.131 194.96 250.915 194.341 250.915 193.555V183.71H246.582V181.676H250.915V176.547H253.243V181.676H257.96V183.71H253.243V193.201C253.243 193.791 253.528 194.085 254.098 194.085H257.311V196.09H253.479ZM162.592 223.09V202.456H170.934C172.212 202.456 173.332 202.682 174.295 203.134C175.277 203.567 176.043 204.196 176.594 205.021C177.144 205.827 177.419 206.799 177.419 207.939V208.263C177.419 209.619 177.095 210.69 176.446 211.476C175.798 212.262 175.031 212.793 174.147 213.068V213.481C174.855 213.5 175.434 213.736 175.886 214.188C176.358 214.62 176.594 215.279 176.594 216.163V223.09H174.147V216.458C174.147 215.868 173.98 215.416 173.646 215.102C173.332 214.787 172.85 214.63 172.202 214.63H165.068V223.09H162.592ZM165.068 212.39H170.698C172.054 212.39 173.096 212.066 173.823 211.417C174.57 210.749 174.943 209.826 174.943 208.646V208.44C174.943 207.261 174.579 206.347 173.852 205.699C173.125 205.031 172.074 204.697 170.698 204.697H165.068V212.39ZM187.879 223.503C186.425 223.503 185.147 223.198 184.047 222.589C182.947 221.96 182.092 221.085 181.483 219.965C180.873 218.845 180.569 217.548 180.569 216.074V215.721C180.569 214.227 180.873 212.921 181.483 211.8C182.092 210.68 182.937 209.816 184.018 209.207C185.098 208.578 186.336 208.263 187.732 208.263C189.087 208.263 190.286 208.558 191.328 209.148C192.369 209.717 193.185 210.543 193.774 211.624C194.364 212.704 194.659 213.972 194.659 215.426V216.487H182.897C182.956 218.04 183.458 219.258 184.401 220.142C185.344 221.007 186.523 221.439 187.938 221.439C189.176 221.439 190.129 221.154 190.797 220.584C191.465 220.014 191.976 219.337 192.33 218.55L194.334 219.523C194.04 220.132 193.627 220.742 193.096 221.351C192.585 221.96 191.907 222.471 191.062 222.884C190.237 223.296 189.176 223.503 187.879 223.503ZM182.927 214.571H192.3C192.222 213.235 191.76 212.193 190.915 211.447C190.09 210.7 189.029 210.327 187.732 210.327C186.415 210.327 185.334 210.7 184.489 211.447C183.644 212.193 183.123 213.235 182.927 214.571ZM204.527 223.503C202.739 223.503 201.226 223.09 199.988 222.265C198.769 221.439 198.032 220.132 197.777 218.344L199.988 217.843C200.145 218.786 200.44 219.533 200.872 220.083C201.304 220.614 201.835 220.997 202.464 221.233C203.112 221.449 203.8 221.557 204.527 221.557C205.608 221.557 206.463 221.341 207.091 220.909C207.72 220.476 208.035 219.897 208.035 219.17C208.035 218.423 207.73 217.902 207.121 217.607C206.531 217.293 205.716 217.037 204.674 216.841L203.466 216.635C202.542 216.477 201.697 216.232 200.931 215.898C200.165 215.564 199.555 215.112 199.103 214.542C198.651 213.972 198.425 213.255 198.425 212.39C198.425 211.093 198.927 210.081 199.929 209.354C200.931 208.627 202.257 208.263 203.908 208.263C205.539 208.263 206.856 208.637 207.858 209.383C208.88 210.11 209.538 211.142 209.833 212.478L207.652 213.038C207.475 211.997 207.052 211.27 206.384 210.857C205.716 210.425 204.891 210.209 203.908 210.209C202.926 210.209 202.149 210.395 201.579 210.769C201.01 211.122 200.725 211.653 200.725 212.36C200.725 213.048 200.99 213.559 201.52 213.893C202.071 214.208 202.798 214.443 203.702 214.601L204.91 214.807C205.932 214.984 206.846 215.23 207.652 215.544C208.477 215.839 209.125 216.271 209.597 216.841C210.088 217.411 210.334 218.157 210.334 219.081C210.334 220.496 209.803 221.587 208.742 222.353C207.701 223.119 206.296 223.503 204.527 223.503ZM220.926 223.503C219.472 223.503 218.185 223.198 217.065 222.589C215.964 221.98 215.1 221.125 214.471 220.024C213.862 218.904 213.557 217.588 213.557 216.074V215.691C213.557 214.198 213.862 212.891 214.471 211.771C215.1 210.651 215.964 209.786 217.065 209.177C218.185 208.568 219.472 208.263 220.926 208.263C222.38 208.263 223.657 208.568 224.758 209.177C225.878 209.786 226.743 210.651 227.352 211.771C227.981 212.891 228.295 214.198 228.295 215.691V216.074C228.295 217.588 227.981 218.904 227.352 220.024C226.743 221.125 225.878 221.98 224.758 222.589C223.657 223.198 222.38 223.503 220.926 223.503ZM220.926 221.41C222.459 221.41 223.677 220.928 224.581 219.965C225.505 218.983 225.966 217.666 225.966 216.016V215.75C225.966 214.1 225.505 212.793 224.581 211.83C223.677 210.847 222.459 210.356 220.926 210.356C219.413 210.356 218.195 210.847 217.271 211.83C216.347 212.793 215.886 214.1 215.886 215.75V216.016C215.886 217.666 216.347 218.983 217.271 219.965C218.195 220.928 219.413 221.41 220.926 221.41ZM232.486 223.09V202.456H234.814V223.09H232.486ZM243.366 223.09L238.207 208.676H240.683L245.016 221.351H245.429L249.762 208.676H252.238L247.08 223.09H243.366ZM261.598 223.503C260.144 223.503 258.867 223.198 257.766 222.589C256.666 221.96 255.811 221.085 255.202 219.965C254.593 218.845 254.288 217.548 254.288 216.074V215.721C254.288 214.227 254.593 212.921 255.202 211.8C255.811 210.68 256.656 209.816 257.737 209.207C258.818 208.578 260.056 208.263 261.451 208.263C262.807 208.263 264.006 208.558 265.047 209.148C266.089 209.717 266.904 210.543 267.494 211.624C268.083 212.704 268.378 213.972 268.378 215.426V216.487H256.617C256.676 218.04 257.177 219.258 258.12 220.142C259.063 221.007 260.242 221.439 261.657 221.439C262.895 221.439 263.848 221.154 264.517 220.584C265.185 220.014 265.696 219.337 266.049 218.55L268.054 219.523C267.759 220.132 267.346 220.742 266.816 221.351C266.305 221.96 265.627 222.471 264.782 222.884C263.956 223.296 262.895 223.503 261.598 223.503ZM256.646 214.571H266.02C265.941 213.235 265.479 212.193 264.634 211.447C263.809 210.7 262.748 210.327 261.451 210.327C260.134 210.327 259.054 210.7 258.209 211.447C257.364 212.193 256.843 213.235 256.646 214.571ZM278.541 223.503C277.303 223.503 276.164 223.208 275.122 222.618C274.081 222.029 273.255 221.174 272.646 220.054C272.037 218.934 271.732 217.607 271.732 216.074V215.691C271.732 214.159 272.037 212.842 272.646 211.741C273.255 210.621 274.071 209.767 275.093 209.177C276.134 208.568 277.284 208.263 278.541 208.263C279.543 208.263 280.388 208.401 281.076 208.676C281.784 208.931 282.354 209.265 282.786 209.678C283.218 210.071 283.552 210.494 283.788 210.946H284.201V202.456H286.529V223.09H284.26V220.702H283.847C283.454 221.429 282.845 222.078 282.019 222.648C281.194 223.218 280.035 223.503 278.541 223.503ZM279.16 221.439C280.654 221.439 281.862 220.968 282.786 220.024C283.729 219.061 284.201 217.725 284.201 216.016V215.75C284.201 214.041 283.729 212.714 282.786 211.771C281.862 210.808 280.654 210.327 279.16 210.327C277.686 210.327 276.468 210.808 275.505 211.771C274.562 212.714 274.09 214.041 274.09 215.75V216.016C274.09 217.725 274.562 219.061 275.505 220.024C276.468 220.968 277.686 221.439 279.16 221.439Z" fill="white"/>
<defs>
<radialGradient id="paint0_radial_129_11216" cx="0" cy="0" r="1" gradientTransform="matrix(79 -433.434 218.633 57.6042 453 27.052)" gradientUnits="userSpaceOnUse">
<stop stop-color="#F7D022"/>
<stop offset="1" stop-color="#0E0E0E"/>
</radialGradient>
</defs>
</svg>
