<svg width="1779" height="416" viewBox="0 0 1779 416" fill="none" xmlns="http://www.w3.org/2000/svg">
<path d="M1778.92 324.765H1757.97V240.942C1757.97 225.613 1755.06 214.359 1749.23 207.179C1743.41 200 1733.13 196.41 1718.38 196.41C1709.07 196.41 1701.11 197.963 1694.52 201.067C1687.92 204.172 1682.87 209.023 1679.38 215.62C1676.08 222.217 1674.43 230.949 1674.43 241.815L1668.9 242.106L1668.32 210.672H1673.56C1675.31 205.627 1678.31 200.679 1682.58 195.828C1686.85 190.783 1692.48 186.612 1699.46 183.313C1706.45 179.82 1714.89 178.074 1724.79 178.074C1737.2 178.074 1747.29 180.499 1755.06 185.35C1763.01 190.201 1768.93 197.09 1772.81 206.015C1776.88 214.747 1778.92 224.934 1778.92 236.576V324.765ZM1674.43 324.765H1653.48V180.985H1672.4V226.68L1674.43 228.135V324.765Z" fill="white"/>
<path d="M250.655 118.577L188 10.0554" stroke="#FFC506" stroke-width="20.1077" stroke-linecap="round"/>
<path d="M304.769 118.577L367.424 10.0554" stroke="#FFC506" stroke-width="20.1077" stroke-linecap="round"/>
<path d="M1563.97 327.676C1549.22 327.676 1536.8 324.474 1526.71 318.071C1516.82 311.474 1509.25 302.548 1504.01 291.294C1498.97 280.04 1496.44 267.234 1496.44 252.875C1496.44 238.322 1499.16 225.419 1504.59 214.165C1510.22 202.911 1517.98 194.082 1527.88 187.679C1537.97 181.276 1549.8 178.074 1563.39 178.074C1575.03 178.074 1585.6 180.402 1595.11 185.059C1604.81 189.716 1612.48 196.701 1618.1 206.015C1623.73 215.329 1626.55 227.068 1626.55 241.233C1626.55 244.725 1626.35 248.024 1625.96 251.129C1625.77 254.233 1625.48 256.756 1625.09 258.696H1507.5V243.27H1609.96L1606.46 247.054C1607.43 234.636 1606.27 224.74 1602.97 217.366C1599.67 209.993 1594.63 204.56 1587.84 201.067C1581.04 197.575 1572.8 195.828 1563.1 195.828C1546.02 195.828 1533.89 200.679 1526.71 210.381C1519.73 219.889 1516.24 232.792 1516.24 249.091V254.621C1516.24 266.069 1517.69 275.868 1520.6 284.018C1523.71 291.973 1528.75 298.182 1535.74 302.645C1542.72 306.914 1552.23 309.048 1564.26 309.048C1578.62 309.048 1588.9 306.138 1595.11 300.317C1601.51 294.302 1604.72 287.025 1604.72 278.488V276.741H1625.38V278.779C1625.38 288.092 1622.76 296.436 1617.52 303.809C1612.48 311.183 1605.3 317.004 1595.98 321.273C1586.87 325.541 1576.19 327.676 1563.97 327.676Z" fill="white"/>
<path d="M1407.99 377.155C1395.77 377.155 1384.9 375.021 1375.4 370.752C1366.08 366.677 1358.71 360.759 1353.28 352.998C1348.04 345.236 1345.42 335.728 1345.42 324.474H1366.37C1366.37 332.43 1367.73 338.93 1370.45 343.975C1373.16 349.02 1377.63 352.706 1383.84 355.035C1390.05 357.363 1398.19 358.528 1408.28 358.528C1418.76 358.528 1427.01 357.169 1433.02 354.453C1439.04 351.736 1443.31 347.468 1445.83 341.646C1448.55 335.825 1449.91 328.161 1449.91 318.653V222.023L1452.23 218.239V180.985H1470.86V318.653C1470.86 331.654 1468.24 342.423 1463 350.96C1457.76 359.692 1450.39 366.192 1440.88 370.461C1431.57 374.924 1420.61 377.155 1407.99 377.155ZM1399.84 311.959C1380.05 311.959 1364.72 305.944 1353.86 293.914C1342.99 281.689 1337.56 265.39 1337.56 245.016C1337.56 224.643 1342.99 208.441 1353.86 196.41C1364.72 184.186 1380.15 178.074 1400.14 178.074C1412.75 178.074 1423.61 180.985 1432.73 186.806C1441.85 192.433 1447.97 199.806 1451.07 208.926H1456.6L1455.44 240.36H1449.91C1449.91 230.658 1447.87 222.508 1443.79 215.911C1439.91 209.314 1434.48 204.366 1427.49 201.067C1420.51 197.769 1412.55 196.119 1403.63 196.119C1394.51 196.119 1386.55 197.575 1379.76 200.485C1373.16 203.202 1367.93 208.15 1364.04 215.329C1360.36 222.508 1358.51 232.404 1358.51 245.016C1358.51 254.524 1359.58 262.48 1361.72 268.883C1364.04 275.092 1367.25 280.04 1371.32 283.727C1375.4 287.219 1380.25 289.839 1385.87 291.585C1391.69 293.137 1398 293.914 1404.79 293.914C1413.33 293.914 1420.99 292.264 1427.79 288.966C1434.77 285.667 1440.2 280.719 1444.08 274.122C1447.97 267.525 1449.91 259.278 1449.91 249.382H1456.02V281.98H1449.61C1446.32 290.324 1440.3 297.406 1431.57 303.227C1423.03 309.048 1412.46 311.959 1399.84 311.959Z" fill="white"/>
<path d="M1252.45 327.676C1237.7 327.676 1225.29 324.474 1215.2 318.071C1205.3 311.474 1197.73 302.548 1192.49 291.294C1187.45 280.04 1184.93 267.234 1184.93 252.875C1184.93 238.322 1187.64 225.419 1193.08 214.165C1198.7 202.911 1206.46 194.082 1216.36 187.679C1226.45 181.276 1238.29 178.074 1251.87 178.074C1263.51 178.074 1274.09 180.402 1283.59 185.059C1293.29 189.716 1300.96 196.701 1306.59 206.015C1312.21 215.329 1315.03 227.068 1315.03 241.233C1315.03 244.725 1314.83 248.024 1314.44 251.129C1314.25 254.233 1313.96 256.756 1313.57 258.696H1195.99V243.27H1298.44L1294.94 247.054C1295.91 234.636 1294.75 224.74 1291.45 217.366C1288.15 209.993 1283.11 204.56 1276.32 201.067C1269.53 197.575 1261.28 195.828 1251.58 195.828C1234.5 195.828 1222.37 200.679 1215.2 210.381C1208.21 219.889 1204.72 232.792 1204.72 249.091V254.621C1204.72 266.069 1206.17 275.868 1209.08 284.018C1212.19 291.973 1217.23 298.182 1224.22 302.645C1231.2 306.914 1240.71 309.048 1252.74 309.048C1267.1 309.048 1277.38 306.138 1283.59 300.317C1290 294.302 1293.2 287.025 1293.2 278.488V276.741H1313.86V278.779C1313.86 288.092 1311.24 296.436 1306 303.809C1300.96 311.183 1293.78 317.004 1284.47 321.273C1275.35 325.541 1264.67 327.676 1252.45 327.676Z" fill="white"/>
<path d="M1088.91 327.676C1068.73 327.676 1053.11 320.885 1042.05 307.302C1031.19 293.72 1025.76 275.48 1025.76 252.584C1025.76 230.076 1030.99 212.03 1041.47 198.448C1051.95 184.865 1066.99 178.074 1086.59 178.074C1100.36 178.074 1111.62 181.179 1120.35 187.388C1129.08 193.403 1135 200.388 1138.1 208.344H1144.8L1143.63 240.651H1138.1C1138.1 230.561 1136.26 222.314 1132.57 215.911C1129.08 209.314 1123.84 204.366 1116.86 201.067C1110.06 197.769 1102.01 196.119 1092.7 196.119C1085.52 196.119 1079.12 197.09 1073.49 199.03C1067.86 200.776 1063.01 203.784 1058.94 208.053C1054.86 212.321 1051.76 218.143 1049.62 225.516C1047.68 232.695 1046.71 241.718 1046.71 252.584C1046.71 263.644 1047.68 272.861 1049.62 280.234C1051.76 287.607 1054.86 293.429 1058.94 297.697C1063.01 301.966 1067.86 304.974 1073.49 306.72C1079.12 308.466 1085.42 309.339 1092.41 309.339C1101.92 309.339 1110.06 307.787 1116.86 304.683C1123.84 301.384 1129.08 296.436 1132.57 289.839C1136.26 283.242 1138.1 274.995 1138.1 265.099H1143.63L1144.8 296.824H1139.27C1136.16 305.944 1130.34 313.414 1121.8 319.235C1113.46 324.862 1102.5 327.676 1088.91 327.676ZM1159.06 324.765H1140.43V287.51L1138.1 283.727V129.759H1159.06V324.765Z" fill="white"/>
<path d="M912.101 374.245C908.608 374.245 905.116 373.954 901.623 373.371C898.13 372.983 895.414 372.595 893.474 372.207V355.326H910.064C916.467 355.326 921.124 354.356 924.034 352.416C927.139 350.669 929.952 346.983 932.475 341.355L943.826 315.743L941.498 324.765L879.212 180.985H901.623L935.385 261.025L950.52 296.242H952.558L966.528 261.025L998.253 180.985H1020.96L950.811 347.759C947.707 354.938 944.117 360.468 940.042 364.349C936.162 368.229 931.893 370.849 927.236 372.207C922.579 373.565 917.534 374.245 912.101 374.245Z" fill="white"/>
<path d="M861.812 324.765H840.856V129.759H861.812V324.765Z" fill="white"/>
<path d="M746.287 327.676C732.316 327.676 720.092 324.474 709.614 318.071C699.136 311.668 690.986 302.839 685.165 291.585C679.344 280.137 676.434 267.137 676.434 252.584C676.434 238.225 679.344 225.516 685.165 214.456C690.986 203.202 699.136 194.373 709.614 187.97C720.092 181.373 732.316 178.074 746.287 178.074C760.257 178.074 772.384 181.373 782.668 187.97C792.952 194.373 800.908 203.202 806.535 214.456C812.162 225.516 814.975 238.225 814.975 252.584C814.975 267.137 812.162 280.137 806.535 291.585C800.908 302.839 792.952 311.668 782.668 318.071C772.384 324.474 760.257 327.676 746.287 327.676ZM746.287 308.757C763.75 308.757 776.168 303.906 783.542 294.205C791.109 284.503 794.893 270.629 794.893 252.584C794.893 234.733 791.109 220.956 783.542 211.254C776.168 201.552 763.75 196.701 746.287 196.701C728.823 196.701 716.308 201.552 708.741 211.254C701.173 220.956 697.389 234.733 697.389 252.584C697.389 270.629 701.173 284.503 708.741 294.205C716.308 303.906 728.823 308.757 746.287 308.757Z" fill="white"/>
<path d="M594.711 327.676C580.934 327.676 569.583 324.571 560.657 318.362C551.926 312.153 546.008 305.168 542.903 297.406H536.5L537.373 265.39H542.903C542.903 275.092 544.746 283.242 548.433 289.839C552.12 296.436 557.359 301.384 564.15 304.683C571.135 307.981 579.382 309.63 588.89 309.63C595.875 309.63 602.181 308.757 607.808 307.011C613.435 305.071 618.189 302.063 622.07 297.988C626.145 293.72 629.249 287.898 631.384 280.525C633.518 273.152 634.585 263.935 634.585 252.875C634.585 241.815 633.518 232.695 631.384 225.516C629.249 218.336 626.242 212.612 622.361 208.344C618.48 203.881 613.726 200.776 608.099 199.03C602.472 197.09 596.069 196.119 588.89 196.119C579.576 196.119 571.426 197.769 564.441 201.067C557.456 204.366 552.12 209.314 548.433 215.911C544.746 222.314 542.903 230.464 542.903 240.36H537.373L536.5 208.635H542.03C545.135 199.709 550.859 192.433 559.202 186.806C567.74 180.985 578.8 178.074 592.382 178.074C612.562 178.074 628.085 184.865 638.951 198.448C649.817 212.03 655.25 230.173 655.25 252.875C655.25 275.577 650.011 293.719 639.533 307.302C629.249 320.885 614.308 327.676 594.711 327.676ZM542.903 375.409H522.238V180.985H540.866V218.239L542.903 222.023V375.409Z" fill="white"/>
<path d="M427.395 116.045C436.079 116.045 443.119 123.086 443.119 131.771V400.226C443.119 408.91 436.079 415.951 427.395 415.951H65.71C57.0253 415.951 49.9845 408.911 49.9844 400.226V390.678L12.6924 372.66C4.93193 368.911 0.000184208 361.052 0 352.433V180.14C3.03214e-05 170.664 5.94691 162.207 14.8643 159L49.9844 146.372V131.771C49.9844 123.086 57.0252 116.045 65.71 116.045H427.395ZM139.275 131.717V143.349C138.915 144.67 138.722 146.061 138.722 147.496V385.623C138.722 387.058 138.915 388.448 139.275 389.769V401.101H151.652C152.559 401.263 153.494 401.349 154.447 401.349H413.916C414.87 401.349 415.803 401.263 416.71 401.101H429.948V131.717H139.275Z" fill="#FFC506"/>
<rect x="271.227" y="359.755" width="21.3416" height="113.448" rx="10.6708" transform="rotate(90 271.227 359.755)" fill="#FFC506"/>
<rect x="317.281" y="359.755" width="21.3416" height="39.3135" rx="10.6708" transform="rotate(90 317.281 359.755)" fill="#FFC506"/>
<rect x="364.458" y="359.755" width="21.3416" height="39.3135" rx="10.6708" transform="rotate(90 364.458 359.755)" fill="#FFC506"/>
<rect x="411.632" y="359.755" width="21.3416" height="39.3135" rx="10.6708" transform="rotate(90 411.632 359.755)" fill="#FFC506"/>
<rect x="229.67" y="182.282" width="21.3416" height="39.3135" fill="#FFC506"/>
<rect x="229.668" y="280.068" width="21.3416" height="22.4649" fill="#FFC506"/>
<rect x="251.009" y="280.004" width="66.2713" height="22.4649" fill="#FFC506"/>
<rect x="317.282" y="182.282" width="21.3416" height="39.3135" fill="#FFC506"/>
<rect x="317.283" y="280.068" width="21.3416" height="22.4649" fill="#FFC506"/>
</svg>
