<svg width="974" height="213" viewBox="0 0 974 213" fill="none" xmlns="http://www.w3.org/2000/svg">
<path d="M118.156 59V178" stroke="#FFC506" stroke-width="16" stroke-linecap="round"/>
<path d="M177.661 118.496L51.6621 118.496" stroke="#FFC506" stroke-width="16" stroke-linecap="round"/>
<path d="M179.16 57.5005L58.6611 177.99" stroke="#FFC506" stroke-width="16" stroke-linecap="round"/>
<path d="M180.576 180.582L7.99951 7.99829" stroke="#FFC506" stroke-width="16" stroke-linecap="round"/>
<path d="M246.643 165.996V65.5842H286.521C292.641 65.5842 298.092 66.8274 302.874 69.3138C307.751 71.7046 311.528 75.1473 314.206 79.6419C316.979 84.0409 318.366 89.3484 318.366 95.5643V97.4291C318.366 103.645 316.931 109 314.062 113.495C311.289 117.99 307.512 121.432 302.73 123.823C297.949 126.214 292.546 127.409 286.521 127.409H262.135V165.996H246.643ZM262.135 113.352H284.943C290.394 113.352 294.745 111.917 297.996 109.048C301.248 106.179 302.874 102.258 302.874 97.2857V95.8512C302.874 90.7828 301.248 86.8142 297.996 83.9452C294.745 81.0763 290.394 79.6419 284.943 79.6419H262.135V113.352ZM364.68 168.004C357.603 168.004 351.291 166.57 345.745 163.701C340.294 160.736 335.99 156.529 332.835 151.078C329.679 145.627 328.101 139.172 328.101 131.713V129.561C328.101 122.102 329.679 115.695 332.835 110.339C335.99 104.888 340.294 100.681 345.745 97.716C351.291 94.7515 357.603 93.2692 364.68 93.2692C371.756 93.2692 378.068 94.7515 383.614 97.716C389.161 100.681 393.512 104.888 396.668 110.339C399.824 115.695 401.402 122.102 401.402 129.561V131.713C401.402 139.172 399.824 145.627 396.668 151.078C393.512 156.529 389.161 160.736 383.614 163.701C378.068 166.57 371.756 168.004 364.68 168.004ZM364.68 154.807C371.182 154.807 376.442 152.751 380.459 148.639C384.571 144.431 386.627 138.646 386.627 131.282V129.991C386.627 122.628 384.619 116.89 380.602 112.778C376.586 108.57 371.278 106.466 364.68 106.466C358.272 106.466 353.013 108.57 348.901 112.778C344.884 116.89 342.876 122.628 342.876 129.991V131.282C342.876 138.646 344.884 144.431 348.901 148.639C353.013 152.751 358.272 154.807 364.68 154.807ZM419.796 165.996V65.5842H434.571V165.996H419.796ZM464.675 194.685V181.775H504.122C506.8 181.775 508.139 180.341 508.139 177.472V155.668H505.843C504.983 157.581 503.644 159.445 501.827 161.262C500.106 162.984 497.763 164.418 494.798 165.566C491.834 166.713 488.104 167.287 483.609 167.287C478.254 167.287 473.473 166.092 469.265 163.701C465.057 161.31 461.758 157.915 459.367 153.516C456.976 149.117 455.781 143.905 455.781 137.881V95.2774H470.556V136.733C470.556 142.854 472.086 147.396 475.146 150.361C478.206 153.229 482.462 154.664 487.913 154.664C493.937 154.664 498.767 152.656 502.401 148.639C506.13 144.623 507.995 138.789 507.995 131.139V95.2774H522.77V180.484C522.77 184.787 521.479 188.23 518.897 190.812C516.411 193.394 512.968 194.685 508.569 194.685H464.675ZM573.874 168.004C568.04 168.004 562.637 166.57 557.664 163.701C552.691 160.832 548.675 156.72 545.615 151.365C542.65 145.914 541.168 139.363 541.168 131.713V129.561C541.168 122.006 542.65 115.503 545.615 110.052C548.579 104.601 552.548 100.441 557.521 97.5726C562.494 94.7037 567.944 93.2692 573.874 93.2692C578.464 93.2692 582.289 93.843 585.349 94.9906C588.505 96.1381 591.087 97.6204 593.095 99.4374C595.104 101.159 596.634 102.976 597.686 104.888H599.981V65.5842H614.756V165.996H600.268V155.955H597.972C596.155 159.015 593.382 161.788 589.653 164.275C586.019 166.761 580.759 168.004 573.874 168.004ZM578.034 155.094C584.441 155.094 589.7 153.038 593.813 148.926C598.02 144.814 600.124 138.933 600.124 131.282V129.991C600.124 122.436 598.068 116.603 593.956 112.491C589.844 108.379 584.536 106.323 578.034 106.323C571.722 106.323 566.462 108.379 562.254 112.491C558.142 116.603 556.086 122.436 556.086 129.991V131.282C556.086 138.933 558.142 144.814 562.254 148.926C566.462 153.038 571.722 155.094 578.034 155.094ZM668.924 168.004C661.752 168.004 655.488 166.522 650.133 163.558C644.778 160.497 640.57 156.242 637.51 150.791C634.545 145.244 633.063 138.837 633.063 131.569V129.848C633.063 122.484 634.545 116.077 637.51 110.626C640.474 105.08 644.586 100.824 649.846 97.8595C655.201 94.7993 661.369 93.2692 668.35 93.2692C675.14 93.2692 681.069 94.7993 686.138 97.8595C691.302 100.824 695.318 104.984 698.187 110.339C701.056 115.695 702.49 121.958 702.49 129.131V134.725H648.125C648.316 140.941 650.372 145.914 654.293 149.643C658.309 153.277 663.282 155.094 669.211 155.094C674.758 155.094 678.918 153.851 681.691 151.365C684.56 148.878 686.759 146.009 688.289 142.758L700.482 149.07C699.143 151.747 697.183 154.568 694.601 157.533C692.115 160.497 688.815 162.984 684.703 164.992C680.591 167 675.331 168.004 668.924 168.004ZM648.268 123.393H687.429C687.046 118.037 685.134 113.878 681.691 110.913C678.248 107.853 673.754 106.323 668.207 106.323C662.66 106.323 658.118 107.853 654.58 110.913C651.137 113.878 649.033 118.037 648.268 123.393ZM716.833 130.995V128.844C716.833 121.385 718.315 115.025 721.28 109.765C724.34 104.506 728.356 100.441 733.329 97.5726C738.302 94.7037 743.753 93.2692 749.682 93.2692C756.567 93.2692 761.827 94.5602 765.461 97.1422C769.19 99.7243 771.916 102.498 773.637 105.462H775.932V95.2774H790.277V180.484C790.277 184.787 788.986 188.23 786.404 190.812C783.917 193.394 780.475 194.685 776.076 194.685H728.452V181.775H771.485C774.259 181.775 775.645 180.341 775.645 177.472V154.951H773.35C772.298 156.672 770.816 158.441 768.903 160.258C766.991 162.075 764.457 163.558 761.301 164.705C758.241 165.853 754.368 166.426 749.682 166.426C743.753 166.426 738.254 165.04 733.186 162.267C728.213 159.398 724.244 155.333 721.28 150.074C718.315 144.718 716.833 138.359 716.833 130.995ZM753.698 153.516C760.105 153.516 765.365 151.508 769.477 147.492C773.685 143.38 775.789 137.737 775.789 130.565V129.274C775.789 121.911 773.733 116.268 769.621 112.347C765.509 108.331 760.201 106.323 753.698 106.323C747.387 106.323 742.127 108.331 737.919 112.347C733.807 116.268 731.751 121.911 731.751 129.274V130.565C731.751 137.737 733.807 143.38 737.919 147.492C742.127 151.508 747.387 153.516 753.698 153.516ZM844.449 168.004C837.277 168.004 831.013 166.522 825.657 163.558C820.302 160.497 816.094 156.242 813.034 150.791C810.07 145.244 808.587 138.837 808.587 131.569V129.848C808.587 122.484 810.07 116.077 813.034 110.626C815.999 105.08 820.111 100.824 825.371 97.8595C830.726 94.7993 836.894 93.2692 843.875 93.2692C850.665 93.2692 856.594 94.7993 861.662 97.8595C866.826 100.824 870.843 104.984 873.712 110.339C876.581 115.695 878.015 121.958 878.015 129.131V134.725H823.649C823.841 140.941 825.897 145.914 829.817 149.643C833.834 153.277 838.807 155.094 844.736 155.094C850.282 155.094 854.442 153.851 857.216 151.365C860.084 148.878 862.284 146.009 863.814 142.758L876.007 149.07C874.668 151.747 872.708 154.568 870.126 157.533C867.639 160.497 864.34 162.984 860.228 164.992C856.116 167 850.856 168.004 844.449 168.004ZM823.793 123.393H862.953C862.571 118.037 860.658 113.878 857.216 110.913C853.773 107.853 849.278 106.323 843.732 106.323C838.185 106.323 833.643 107.853 830.104 110.913C826.662 113.878 824.558 118.037 823.793 123.393ZM895.8 165.996V95.2774H910.288V105.892H912.583C913.922 103.024 916.313 100.346 919.756 97.8595C923.198 95.3731 928.314 94.1299 935.104 94.1299C940.459 94.1299 945.193 95.3253 949.305 97.716C953.513 100.107 956.812 103.502 959.203 107.901C961.594 112.204 962.789 117.416 962.789 123.536V165.996H948.014V124.684C948.014 118.563 946.484 114.069 943.424 111.2C940.364 108.235 936.156 106.753 930.801 106.753C924.68 106.753 919.756 108.761 916.026 112.778C912.392 116.794 910.575 122.628 910.575 130.278V165.996H895.8Z" fill="white"/>
</svg>
