<svg width="346" height="416" viewBox="0 0 346 416" fill="none" xmlns="http://www.w3.org/2000/svg">
<rect width="346" height="346" fill="#0E0E0E"/>
<rect width="346" height="416" fill="url(#paint0_radial_137_480)" style="mix-blend-mode:color-dodge"/>
<path d="M106.584 169.468L94.1891 148" stroke="#FFC506" stroke-width="3.97768" stroke-linecap="round"/>
<path d="M117.288 169.468L129.683 148" stroke="#FFC506" stroke-width="3.97768" stroke-linecap="round"/>
<path d="M141.547 168.967C143.264 168.967 144.657 170.359 144.657 172.077V225.183C144.657 226.901 143.264 228.293 141.547 228.294H69.998C68.2802 228.294 66.8879 226.901 66.8877 225.183V223.295L59.5107 219.73C57.9755 218.988 57 217.433 57 215.728V181.646C57.0001 179.772 58.1764 178.098 59.9404 177.464L66.8877 174.966V172.077C66.8881 170.359 68.2803 168.967 69.998 168.967H141.547ZM84.5508 172.067V174.369C84.4796 174.63 84.4404 174.905 84.4404 175.188V222.295C84.4404 222.578 84.4798 222.852 84.5508 223.113V225.356H87.002C87.1804 225.388 87.3642 225.405 87.5518 225.405H138.88C139.068 225.405 139.251 225.388 139.43 225.356H142.052V172.067H84.5508Z" fill="#FFC506"/>
<path d="M98.0581 206.412V200.873L92.5881 190.323H95.9666L99.3682 197.218H99.7819L103.183 190.323H106.562L101.092 200.873V206.412H98.0581ZM108.263 206.412V190.323H118.606V193.081H111.297V196.92H117.962V199.678H111.297V203.654H118.744V206.412H108.263ZM126.574 206.734C125.333 206.734 124.238 206.511 123.288 206.067C122.338 205.623 121.595 204.987 121.058 204.159C120.522 203.332 120.254 202.336 120.254 201.172V200.528H123.242V201.172C123.242 202.137 123.541 202.865 124.138 203.355C124.736 203.83 125.548 204.067 126.574 204.067C127.616 204.067 128.39 203.861 128.896 203.447C129.417 203.033 129.677 202.505 129.677 201.861C129.677 201.417 129.547 201.057 129.286 200.781C129.041 200.505 128.674 200.283 128.183 200.114C127.708 199.93 127.126 199.762 126.437 199.609L125.908 199.494C124.805 199.249 123.855 198.942 123.058 198.574C122.277 198.191 121.671 197.693 121.242 197.08C120.829 196.468 120.622 195.671 120.622 194.69C120.622 193.71 120.852 192.874 121.311 192.185C121.786 191.48 122.445 190.944 123.288 190.576C124.146 190.193 125.149 190.002 126.299 190.002C127.448 190.002 128.467 190.201 129.355 190.599C130.259 190.982 130.964 191.564 131.47 192.346C131.991 193.112 132.251 194.077 132.251 195.242V195.931H129.264V195.242C129.264 194.629 129.141 194.139 128.896 193.771C128.666 193.388 128.329 193.112 127.885 192.943C127.44 192.76 126.912 192.668 126.299 192.668C125.379 192.668 124.697 192.844 124.253 193.196C123.824 193.533 123.61 194.001 123.61 194.598C123.61 194.997 123.709 195.334 123.908 195.61C124.123 195.885 124.437 196.115 124.851 196.299C125.264 196.483 125.793 196.644 126.437 196.782L126.965 196.897C128.114 197.142 129.11 197.456 129.953 197.839C130.811 198.222 131.478 198.728 131.953 199.356C132.428 199.984 132.665 200.788 132.665 201.769C132.665 202.75 132.412 203.615 131.907 204.366C131.416 205.102 130.711 205.684 129.792 206.113C128.888 206.527 127.816 206.734 126.574 206.734Z" fill="#FFC506"/>
<path d="M162.592 196.088V175.455H167.309L172.791 194.526H173.174L178.657 175.455H183.373V196.088H180.986V177.076H180.573L175.12 196.088H170.846L165.393 177.076H164.98V196.088H162.592ZM192.606 196.501C191.604 196.501 190.69 196.324 189.865 195.97C189.04 195.617 188.391 195.106 187.919 194.438C187.448 193.769 187.212 192.954 187.212 191.991C187.212 191.009 187.448 190.203 187.919 189.574C188.391 188.926 189.04 188.444 189.865 188.13C190.69 187.796 191.614 187.629 192.636 187.629H197.499V186.567C197.499 185.546 197.195 184.74 196.586 184.15C195.996 183.561 195.112 183.266 193.933 183.266C192.773 183.266 191.869 183.551 191.221 184.121C190.572 184.671 190.13 185.418 189.894 186.361L187.713 185.654C187.949 184.848 188.322 184.121 188.833 183.472C189.344 182.804 190.022 182.274 190.867 181.881C191.732 181.468 192.763 181.262 193.962 181.262C195.809 181.262 197.244 181.743 198.266 182.706C199.288 183.649 199.798 184.986 199.798 186.715V193.229C199.798 193.819 200.074 194.113 200.624 194.113H201.95V196.088H199.916C199.268 196.088 198.747 195.911 198.354 195.558C197.961 195.184 197.765 194.693 197.765 194.084V193.936H197.411C197.195 194.31 196.9 194.703 196.527 195.116C196.173 195.509 195.682 195.833 195.053 196.088C194.424 196.363 193.608 196.501 192.606 196.501ZM192.872 194.497C194.247 194.497 195.357 194.094 196.202 193.288C197.067 192.463 197.499 191.313 197.499 189.839V189.515H192.724C191.801 189.515 191.034 189.721 190.425 190.134C189.835 190.527 189.541 191.126 189.541 191.932C189.541 192.738 189.845 193.367 190.454 193.819C191.083 194.271 191.889 194.497 192.872 194.497ZM205.139 196.088V181.674H207.409V183.443H207.822C208.077 182.814 208.47 182.352 209.001 182.058C209.531 181.763 210.229 181.615 211.094 181.615H212.803V183.738H210.946C209.905 183.738 209.06 184.032 208.411 184.622C207.782 185.192 207.468 186.086 207.468 187.304V196.088H205.139ZM216.251 196.088V175.455H218.579V187.599H218.992L225.595 181.674H228.837L220.849 188.69L229.073 196.088H225.86L218.992 189.81H218.579V196.088H216.251ZM237.937 196.501C236.483 196.501 235.205 196.196 234.105 195.587C233.004 194.958 232.15 194.084 231.54 192.964C230.931 191.844 230.627 190.547 230.627 189.073V188.719C230.627 187.226 230.931 185.919 231.54 184.799C232.15 183.679 232.995 182.814 234.075 182.205C235.156 181.576 236.394 181.262 237.789 181.262C239.145 181.262 240.344 181.556 241.386 182.146C242.427 182.716 243.243 183.541 243.832 184.622C244.422 185.703 244.716 186.97 244.716 188.424V189.486H232.955C233.014 191.038 233.515 192.256 234.459 193.141C235.402 194.005 236.581 194.438 237.996 194.438C239.234 194.438 240.187 194.153 240.855 193.583C241.523 193.013 242.034 192.335 242.388 191.549L244.392 192.522C244.097 193.131 243.685 193.74 243.154 194.349C242.643 194.958 241.965 195.469 241.12 195.882C240.295 196.295 239.234 196.501 237.937 196.501ZM232.985 187.57H242.358C242.28 186.233 241.818 185.192 240.973 184.445C240.148 183.698 239.086 183.325 237.789 183.325C236.473 183.325 235.392 183.698 234.547 184.445C233.702 185.192 233.181 186.233 232.985 187.57ZM253.479 196.088C252.654 196.088 252.015 195.862 251.563 195.41C251.131 194.958 250.915 194.339 250.915 193.553V183.708H246.582V181.674H250.915V176.545H253.243V181.674H257.96V183.708H253.243V193.2C253.243 193.789 253.528 194.084 254.098 194.084H257.311V196.088H253.479ZM162.592 223.088V202.455H170.934C172.212 202.455 173.332 202.681 174.295 203.133C175.277 203.565 176.043 204.194 176.594 205.019C177.144 205.825 177.419 206.798 177.419 207.937V208.262C177.419 209.618 177.095 210.689 176.446 211.475C175.798 212.261 175.031 212.791 174.147 213.066V213.479C174.855 213.499 175.434 213.734 175.886 214.186C176.358 214.619 176.594 215.277 176.594 216.161V223.088H174.147V216.456C174.147 215.867 173.98 215.415 173.646 215.1C173.332 214.786 172.85 214.629 172.202 214.629H165.068V223.088H162.592ZM165.068 212.388H170.698C172.054 212.388 173.096 212.064 173.823 211.416C174.57 210.748 174.943 209.824 174.943 208.645V208.439C174.943 207.26 174.579 206.346 173.852 205.697C173.125 205.029 172.074 204.695 170.698 204.695H165.068V212.388ZM187.879 223.501C186.425 223.501 185.147 223.196 184.047 222.587C182.947 221.958 182.092 221.084 181.483 219.964C180.873 218.844 180.569 217.547 180.569 216.073V215.719C180.569 214.226 180.873 212.919 181.483 211.799C182.092 210.679 182.937 209.814 184.018 209.205C185.098 208.576 186.336 208.262 187.732 208.262C189.087 208.262 190.286 208.556 191.328 209.146C192.369 209.716 193.185 210.541 193.774 211.622C194.364 212.703 194.659 213.97 194.659 215.424V216.486H182.897C182.956 218.038 183.458 219.256 184.401 220.141C185.344 221.005 186.523 221.438 187.938 221.438C189.176 221.438 190.129 221.153 190.797 220.583C191.465 220.013 191.976 219.335 192.33 218.549L194.334 219.522C194.04 220.131 193.627 220.74 193.096 221.349C192.585 221.958 191.907 222.469 191.062 222.882C190.237 223.295 189.176 223.501 187.879 223.501ZM182.927 214.57H192.3C192.222 213.233 191.76 212.192 190.915 211.445C190.09 210.698 189.029 210.325 187.732 210.325C186.415 210.325 185.334 210.698 184.489 211.445C183.644 212.192 183.123 213.233 182.927 214.57ZM204.527 223.501C202.739 223.501 201.226 223.088 199.988 222.263C198.769 221.438 198.032 220.131 197.777 218.343L199.988 217.841C200.145 218.785 200.44 219.531 200.872 220.082C201.304 220.612 201.835 220.995 202.464 221.231C203.112 221.447 203.8 221.555 204.527 221.555C205.608 221.555 206.463 221.339 207.091 220.907C207.72 220.475 208.035 219.895 208.035 219.168C208.035 218.421 207.73 217.9 207.121 217.606C206.531 217.291 205.716 217.036 204.674 216.839L203.466 216.633C202.542 216.476 201.697 216.23 200.931 215.896C200.165 215.562 199.555 215.11 199.103 214.54C198.651 213.97 198.425 213.253 198.425 212.388C198.425 211.091 198.927 210.079 199.929 209.352C200.931 208.625 202.257 208.262 203.908 208.262C205.539 208.262 206.856 208.635 207.858 209.382C208.88 210.109 209.538 211.141 209.833 212.477L207.652 213.037C207.475 211.995 207.052 211.268 206.384 210.856C205.716 210.423 204.891 210.207 203.908 210.207C202.926 210.207 202.149 210.394 201.579 210.767C201.01 211.121 200.725 211.651 200.725 212.359C200.725 213.047 200.99 213.558 201.52 213.892C202.071 214.206 202.798 214.442 203.702 214.599L204.91 214.805C205.932 214.982 206.846 215.228 207.652 215.542C208.477 215.837 209.125 216.269 209.597 216.839C210.088 217.409 210.334 218.156 210.334 219.079C210.334 220.494 209.803 221.585 208.742 222.351C207.701 223.118 206.296 223.501 204.527 223.501ZM220.926 223.501C219.472 223.501 218.185 223.196 217.065 222.587C215.964 221.978 215.1 221.123 214.471 220.023C213.862 218.903 213.557 217.586 213.557 216.073V215.69C213.557 214.196 213.862 212.889 214.471 211.769C215.1 210.649 215.964 209.785 217.065 209.175C218.185 208.566 219.472 208.262 220.926 208.262C222.38 208.262 223.657 208.566 224.758 209.175C225.878 209.785 226.743 210.649 227.352 211.769C227.981 212.889 228.295 214.196 228.295 215.69V216.073C228.295 217.586 227.981 218.903 227.352 220.023C226.743 221.123 225.878 221.978 224.758 222.587C223.657 223.196 222.38 223.501 220.926 223.501ZM220.926 221.408C222.459 221.408 223.677 220.927 224.581 219.964C225.505 218.981 225.966 217.665 225.966 216.014V215.749C225.966 214.098 225.505 212.791 224.581 211.828C223.677 210.846 222.459 210.355 220.926 210.355C219.413 210.355 218.195 210.846 217.271 211.828C216.347 212.791 215.886 214.098 215.886 215.749V216.014C215.886 217.665 216.347 218.981 217.271 219.964C218.195 220.927 219.413 221.408 220.926 221.408ZM232.486 223.088V202.455H234.814V223.088H232.486ZM243.366 223.088L238.207 208.674H240.683L245.016 221.349H245.429L249.762 208.674H252.238L247.08 223.088H243.366ZM261.598 223.501C260.144 223.501 258.867 223.196 257.766 222.587C256.666 221.958 255.811 221.084 255.202 219.964C254.593 218.844 254.288 217.547 254.288 216.073V215.719C254.288 214.226 254.593 212.919 255.202 211.799C255.811 210.679 256.656 209.814 257.737 209.205C258.818 208.576 260.056 208.262 261.451 208.262C262.807 208.262 264.006 208.556 265.047 209.146C266.089 209.716 266.904 210.541 267.494 211.622C268.083 212.703 268.378 213.97 268.378 215.424V216.486H256.617C256.676 218.038 257.177 219.256 258.12 220.141C259.063 221.005 260.242 221.438 261.657 221.438C262.895 221.438 263.848 221.153 264.517 220.583C265.185 220.013 265.696 219.335 266.049 218.549L268.054 219.522C267.759 220.131 267.346 220.74 266.816 221.349C266.305 221.958 265.627 222.469 264.782 222.882C263.956 223.295 262.895 223.501 261.598 223.501ZM256.646 214.57H266.02C265.941 213.233 265.479 212.192 264.634 211.445C263.809 210.698 262.748 210.325 261.451 210.325C260.134 210.325 259.054 210.698 258.209 211.445C257.364 212.192 256.843 213.233 256.646 214.57ZM278.541 223.501C277.303 223.501 276.164 223.206 275.122 222.617C274.081 222.027 273.255 221.172 272.646 220.052C272.037 218.932 271.732 217.606 271.732 216.073V215.69C271.732 214.157 272.037 212.84 272.646 211.74C273.255 210.62 274.071 209.765 275.093 209.175C276.134 208.566 277.284 208.262 278.541 208.262C279.543 208.262 280.388 208.399 281.076 208.674C281.784 208.93 282.354 209.264 282.786 209.677C283.218 210.07 283.552 210.492 283.788 210.944H284.201V202.455H286.529V223.088H284.26V220.701H283.847C283.454 221.428 282.845 222.076 282.019 222.646C281.194 223.216 280.035 223.501 278.541 223.501ZM279.16 221.438C280.654 221.438 281.862 220.966 282.786 220.023C283.729 219.06 284.201 217.724 284.201 216.014V215.749C284.201 214.039 283.729 212.713 282.786 211.769C281.862 210.806 280.654 210.325 279.16 210.325C277.686 210.325 276.468 210.806 275.505 211.769C274.562 212.713 274.09 214.039 274.09 215.749V216.014C274.09 217.724 274.562 219.06 275.505 220.023C276.468 220.966 277.686 221.438 279.16 221.438Z" fill="white"/>
<defs>
<radialGradient id="paint0_radial_137_480" cx="0" cy="0" r="1" gradientTransform="matrix(79 -433.434 218.633 57.6042 453 27.052)" gradientUnits="userSpaceOnUse">
<stop stop-color="#F7D022"/>
<stop offset="1" stop-color="#0E0E0E"/>
</radialGradient>
</defs>
</svg>
